<mxfile host="app.diagrams.net" modified="2023-05-10T09:22:32.417Z" agent="Mozilla/5.0 (Windows NT 10.0; Win64; x64) AppleWebKit/537.36 (KHTML, like Gecko) Chrome/112.0.0.0 Safari/537.36" version="21.2.9" etag="Eks5C9UAqLg-DPBwaJZ3" type="github">
  <diagram name="Trang-1" id="EtQ1Zq2REr5mAceUqS0x">
    <mxGraphModel>
      <root>
        <mxCell id="0" />
        <mxCell id="1" parent="0" />
      </root>
    </mxGraphModel>
  </diagram>
</mxfile>
